<svg xmlns="http://www.w3.org/2000/svg" width="64" height="64" viewBox="0 0 64 64" role="img" aria-label="Benedict Thekkel">
  <title>Benedict Thekkel</title>
  <g>
    <circle cx="53.5" cy="24.9" r="1.35" fill="#490C6A"/>
    <circle cx="56.1" cy="24.6" r="1.39" fill="#510F6B"/>
    <circle cx="54.6" cy="22.8" r="1.4" fill="#54106B"/>
    <circle cx="50.8" cy="24.5" r="1.41" fill="#56106B"/>
    <circle cx="51.9" cy="22.3" r="1.47" fill="#61146C"/>
    <circle cx="57.4" cy="24.0" r="1.47" fill="#62146C"/>
    <circle cx="48.1" cy="23.9" r="1.48" fill="#62146C"/>
    <circle cx="56.0" cy="22.2" r="1.49" fill="#65156C"/>
    <circle cx="49.1" cy="21.8" r="1.53" fill="#6E186D"/>
    <circle cx="45.3" cy="23.5" r="1.54" fill="#70196C"/>
    <circle cx="53.2" cy="21.7" r="1.55" fill="#721A6C"/>
    <circle cx="45.4" cy="26.7" r="1.57" fill="#761B6B"/>
    <circle cx="46.4" cy="21.2" r="1.6" fill="#7B1D6A"/>
    <circle cx="45.5" cy="30.0" r="1.61" fill="#7C1D6A"/>
    <circle cx="42.5" cy="23.0" r="1.61" fill="#7C1D6A"/>
    <circle cx="47.9" cy="26.4" r="1.61" fill="#7E1E6A"/>
    <circle cx="50.4" cy="21.1" r="1.62" fill="#7E1E6A"/>
    <circle cx="45.5" cy="33.3" r="1.64" fill="#832069"/>
    <circle cx="48.0" cy="29.8" r="1.65" fill="#842068"/>
    <circle cx="43.4" cy="20.7" r="1.66" fill="#882168"/>
    <circle cx="39.4" cy="22.4" r="1.67" fill="#892267"/>
    <circle cx="45.6" cy="36.7" r="1.67" fill="#892267"/>
    <circle cx="47.6" cy="20.5" r="1.68" fill="#8B2267"/>
    <circle cx="48.1" cy="33.1" r="1.68" fill="#8B2267"/>
    <circle cx="49.3" cy="25.7" r="1.7" fill="#8E2366"/>
    <circle cx="45.7" cy="40.1" r="1.7" fill="#8F2466"/>
    <circle cx="48.2" cy="36.6" r="1.71" fill="#912466"/>
    <circle cx="40.4" cy="20.1" r="1.73" fill="#942664"/>
    <circle cx="49.3" cy="29.2" r="1.73" fill="#942664"/>
    <circle cx="36.3" cy="21.9" r="1.73" fill="#952664"/>
    <circle cx="45.8" cy="43.7" r="1.74" fill="#962764"/>
    <circle cx="48.4" cy="40.0" r="1.75" fill="#972763"/>
    <circle cx="44.6" cy="19.9" r="1.75" fill="#972763"/>
    <circle cx="49.5" cy="32.5" r="1.76" fill="#9A2962"/>
    <circle cx="45.9" cy="47.1" r="1.77" fill="#9C2961"/>
    <circle cx="48.5" cy="43.5" r="1.78" fill="#9D2A61"/>
    <circle cx="37.3" cy="19.5" r="1.79" fill="#A02B5F"/>
    <circle cx="49.6" cy="36.1" r="1.8" fill="#A02B5F"/>
    <circle cx="46.0" cy="50.8" r="1.8" fill="#A22C5E"/>
    <circle cx="41.6" cy="19.4" r="1.81" fill="#A32C5E"/>
    <circle cx="48.6" cy="47.0" r="1.81" fill="#A32D5E"/>
    <circle cx="49.8" cy="39.6" r="1.83" fill="#A62E5C"/>
    <circle cx="48.6" cy="50.7" r="1.84" fill="#A92F5B"/>
    <circle cx="49.7" cy="43.2" r="1.86" fill="#AC315A"/>
    <circle cx="38.4" cy="18.8" r="1.87" fill="#AF3259"/>
    <circle cx="50.0" cy="46.8" r="1.89" fill="#B23457"/>
    <circle cx="50.1" cy="50.5" r="1.93" fill="#B83753"/>
    <circle cx="26.6" cy="23.7" r="1.96" fill="#BE3B50"/>
    <circle cx="23.2" cy="19.5" r="1.99" fill="#C43E4C"/>
    <circle cx="26.5" cy="27.2" r="1.99" fill="#C43E4C"/>
    <circle cx="29.2" cy="23.3" r="2.0" fill="#C63F4B"/>
    <circle cx="27.4" cy="21.2" r="2.01" fill="#C8414A"/>
    <circle cx="26.5" cy="30.9" r="2.03" fill="#CA4248"/>
    <circle cx="29.1" cy="26.9" r="2.03" fill="#CB4248"/>
    <circle cx="25.8" cy="19.1" r="2.03" fill="#CB4348"/>
    <circle cx="24.1" cy="17.1" r="2.05" fill="#CE4446"/>
    <circle cx="19.6" cy="18.9" r="2.05" fill="#CF4545"/>
    <circle cx="29.1" cy="30.5" r="2.07" fill="#D14644"/>
    <circle cx="30.2" cy="22.5" r="2.09" fill="#D44941"/>
    <circle cx="26.4" cy="38.3" r="2.09" fill="#D44A40"/>
    <circle cx="28.5" cy="20.4" r="2.1" fill="#D64C3F"/>
    <circle cx="20.5" cy="16.4" r="2.11" fill="#D74D3D"/>
    <circle cx="30.2" cy="26.2" r="2.11" fill="#D74E3D"/>
    <circle cx="26.8" cy="18.3" r="2.11" fill="#D74E3D"/>
    <circle cx="16.0" cy="18.2" r="2.12" fill="#D84F3C"/>
    <circle cx="22.8" cy="34.1" r="2.12" fill="#D84F3C"/>
    <circle cx="26.3" cy="42.0" r="2.12" fill="#D9503B"/>
    <circle cx="25.0" cy="16.2" r="2.13" fill="#D9513B"/>
    <circle cx="29.0" cy="38.0" r="2.13" fill="#DA513A"/>
    <circle cx="27.3" cy="35.9" r="2.15" fill="#DB5338"/>
    <circle cx="30.2" cy="29.9" r="2.15" fill="#DC5437"/>
    <circle cx="26.2" cy="45.8" r="2.15" fill="#DD5537"/>
    <circle cx="25.6" cy="33.8" r="2.16" fill="#DE5636"/>
    <circle cx="29.0" cy="41.9" r="2.16" fill="#DE5635"/>
    <circle cx="16.7" cy="15.7" r="2.17" fill="#DF5834"/>
    <circle cx="23.8" cy="31.8" r="2.18" fill="#DF5834"/>
    <circle cx="12.2" cy="17.5" r="2.18" fill="#E15A32"/>
    <circle cx="19.2" cy="33.7" r="2.19" fill="#E15A32"/>
    <circle cx="29.0" cy="45.7" r="2.19" fill="#E25B31"/>
    <circle cx="21.4" cy="15.5" r="2.19" fill="#E25B31"/>
    <circle cx="30.1" cy="37.6" r="2.21" fill="#E45E2E"/>
    <circle cx="28.3" cy="35.5" r="2.23" fill="#E7612C"/>
    <circle cx="20.0" cy="31.3" r="2.24" fill="#E8632A"/>
    <circle cx="12.9" cy="14.9" r="2.24" fill="#E8632A"/>
    <circle cx="30.1" cy="41.5" r="2.24" fill="#E8632A"/>
    <circle cx="26.6" cy="33.3" r="2.25" fill="#E8642A"/>
    <circle cx="8.3" cy="16.9" r="2.25" fill="#E86429"/>
    <circle cx="15.4" cy="33.2" r="2.25" fill="#E96529"/>
    <circle cx="22.5" cy="49.7" r="2.25" fill="#E96529"/>
    <circle cx="17.6" cy="14.7" r="2.26" fill="#E96628"/>
    <circle cx="24.7" cy="31.1" r="2.26" fill="#E96727"/>
    <circle cx="30.1" cy="45.4" r="2.28" fill="#EB6A25"/>
    <circle cx="8.2" cy="20.7" r="2.28" fill="#EB6B25"/>
    <circle cx="25.2" cy="49.5" r="2.29" fill="#EC6D23"/>
    <circle cx="9.0" cy="14.3" r="2.3" fill="#ED6F22"/>
    <circle cx="16.2" cy="30.8" r="2.31" fill="#ED7022"/>
    <circle cx="23.5" cy="47.4" r="2.31" fill="#ED7121"/>
    <circle cx="11.6" cy="32.8" r="2.31" fill="#ED7121"/>
    <circle cx="8.0" cy="24.5" r="2.31" fill="#EE7121"/>
    <circle cx="18.8" cy="49.4" r="2.32" fill="#EE7220"/>
    <circle cx="10.8" cy="20.3" r="2.32" fill="#EE731F"/>
    <circle cx="13.8" cy="14.0" r="2.32" fill="#EE731F"/>
    <circle cx="20.9" cy="30.6" r="2.33" fill="#EE741F"/>
    <circle cx="7.7" cy="28.4" r="2.35" fill="#F0781C"/>
    <circle cx="10.6" cy="24.1" r="2.35" fill="#F1791B"/>
    <circle cx="12.3" cy="30.3" r="2.37" fill="#F27D19"/>
    <circle cx="19.6" cy="47.2" r="2.37" fill="#F27D19"/>
    <circle cx="7.5" cy="32.3" r="2.38" fill="#F27E18"/>
    <circle cx="26.3" cy="49.2" r="2.38" fill="#F37E18"/>
    <circle cx="14.9" cy="49.2" r="2.38" fill="#F37E18"/>
    <circle cx="9.7" cy="13.2" r="2.39" fill="#F38017"/>
    <circle cx="17.2" cy="30.1" r="2.39" fill="#F38016"/>
    <circle cx="10.3" cy="28.1" r="2.39" fill="#F38016"/>
    <circle cx="24.4" cy="47.1" r="2.39" fill="#F48116"/>
    <circle cx="11.6" cy="19.4" r="2.4" fill="#F58314"/>
    <circle cx="7.3" cy="36.4" r="2.41" fill="#F58513"/>
    <circle cx="11.3" cy="23.4" r="2.44" fill="#F68A13"/>
    <circle cx="15.6" cy="46.9" r="2.44" fill="#F68A13"/>
    <circle cx="7.1" cy="40.4" r="2.45" fill="#F68D13"/>
    <circle cx="10.8" cy="49.1" r="2.45" fill="#F68D13"/>
    <circle cx="10.0" cy="36.1" r="2.45" fill="#F78E14"/>
    <circle cx="13.1" cy="29.6" r="2.45" fill="#F78E14"/>
    <circle cx="20.5" cy="46.8" r="2.46" fill="#F78F14"/>
    <circle cx="11.1" cy="27.3" r="2.47" fill="#F79214"/>
    <circle cx="6.9" cy="44.6" r="2.48" fill="#F79415"/>
    <circle cx="9.8" cy="40.2" r="2.48" fill="#F79515"/>
    <circle cx="11.6" cy="46.8" r="2.5" fill="#F79916"/>
    <circle cx="6.6" cy="48.9" r="2.51" fill="#F79B16"/>
    <circle cx="9.6" cy="44.4" r="2.52" fill="#F89D17"/>
    <circle cx="16.6" cy="46.6" r="2.52" fill="#F89D17"/>
    <circle cx="10.7" cy="35.5" r="2.54" fill="#F8A118"/>
    <circle cx="10.5" cy="39.8" r="2.57" fill="#F8A919"/>
    <circle cx="12.4" cy="46.4" r="2.58" fill="#F9AC1A"/>
    <circle cx="10.3" cy="44.0" r="2.6" fill="#F9B01B"/>
  </g>
</svg>
